<svg xmlns="http://www.w3.org/2000/svg" width="125.319" height="110.004" viewBox="0 0 125.319 110.004">
  <g id="Group_3" data-name="Group 3" transform="translate(-1054 -368)">
    <path id="Path_1" data-name="Path 1" d="M19.208,128.407V58.414l-5.556,2.469v73.08l30.912-13.738v-3.087Zm0,0" transform="translate(1044.14 325.793)" fill="#51a5a8"/>
    <path id="Path_2" data-name="Path 2" d="M145.49,86.3V22.056l-5.556-3.087V91.856l30.911,17.173v-8.642Zm0,0" transform="translate(952.938 354.281)" fill="#51a5a8"/>
    <path id="Path_3" data-name="Path 3" d="M278.477,138.453l-8.711,3.872V72.332L264.211,74.8v73.08l15.059-6.692Zm0,0" transform="translate(863.183 315.741)" fill="#51a5a8"/>
    <path id="Path_4" data-name="Path 4" d="M197.883,4.255a1.943,1.943,0,0,0-1.849-.148L162.119,19.182,128.166.319a1.945,1.945,0,0,0-1.889,3.4l33.8,18.779V95.382L128.166,77.654a1.945,1.945,0,0,0-1.889,3.4l34.8,19.333c.025.014.052.025.077.037s.068.035.1.05.1.037.146.055c.034.011.066.023.1.033.054.015.107.025.162.036.033.005.064.013.1.017a1.9,1.9,0,0,0,.207.015c.017,0,.035,0,.052,0a2.149,2.149,0,0,0,.237-.016l.053-.009a1.741,1.741,0,0,0,.179-.036l.068-.018q.085-.024.166-.055c.021-.009.042-.015.064-.025l.022-.008L182.087,91.9a1.944,1.944,0,0,0-1.579-3.554L163.967,95.7V22.615L194.879,8.876V65.909a1.944,1.944,0,1,0,3.889,0V5.885a1.943,1.943,0,0,0-.885-1.63Zm0,0" transform="translate(963.523 367.927)" fill="#4cd3d8"/>
    <path id="Path_5" data-name="Path 5" d="M346.856,235.555a18.648,18.648,0,0,0-26.41,0,19.764,19.764,0,0,0-5.707,12.637,18.692,18.692,0,0,0,1.126,7.694,20.047,20.047,0,0,0,4.3,6.83l12.071,12.857a1.946,1.946,0,0,0,2.835,0l12.071-12.857a20.047,20.047,0,0,0,4.3-6.83,18.692,18.692,0,0,0,1.126-7.694A19.764,19.764,0,0,0,346.856,235.555Zm.927,19a16.167,16.167,0,0,1-3.479,5.5L333.652,271.4,323,260.054a16.17,16.17,0,0,1-3.478-5.5,14.82,14.82,0,0,1-.9-6.1A15.872,15.872,0,0,1,323.2,238.3a14.757,14.757,0,0,1,20.9,0,15.871,15.871,0,0,1,4.581,10.151A14.83,14.83,0,0,1,347.783,254.553Zm0,0" transform="translate(826.718 201.817)" fill="#51a5a8"/>
    <path id="Path_6" data-name="Path 6" d="M356.2,257.223a10.5,10.5,0,1,0,10.278,10.5A10.4,10.4,0,0,0,356.2,257.223Zm0,17.115a6.617,6.617,0,1,1,6.389-6.613A6.511,6.511,0,0,1,356.2,274.338Zm0,0" transform="translate(804.17 182.21)" fill="#51a5a8"/>
    <path id="Path_7" data-name="Path 7" d="M38.69,79.351V2.016A1.944,1.944,0,0,0,35.956.238L1.155,15.706A1.946,1.946,0,0,0,0,17.483V94.819A1.944,1.944,0,0,0,2.734,96.6l34.8-15.468a1.943,1.943,0,0,0,1.156-1.777ZM34.8,78.088,3.889,91.826V18.746L34.8,5.008Zm0,0" transform="translate(1054 367.929)" fill="#4cd3d8"/>
  </g>
</svg>
